<svg width="32" height="32" viewBox="0 0 32 32" fill="none" xmlns="http://www.w3.org/2000/svg">
<rect width="32" height="32" rx="16" fill="#2B7FFF"/>
<path d="M16.0274 26.208C15.2561 26.208 14.6148 26.0823 14.1034 25.831C13.5921 25.571 13.1891 25.1983 12.8944 24.713C12.5998 24.2277 12.3874 23.6427 12.2574 22.958C12.1361 22.2733 12.0754 21.502 12.0754 20.644L14.8314 20.384C14.8314 20.8 14.8444 21.203 14.8704 21.593C14.9051 21.9743 14.9614 22.321 15.0394 22.633C15.1261 22.9363 15.2474 23.179 15.4034 23.361C15.5681 23.543 15.7761 23.634 16.0274 23.634C16.4434 23.634 16.7381 23.4433 16.9114 23.062C17.0848 22.672 17.1714 22.204 17.1714 21.658C17.1714 21.112 17.0284 20.5443 16.7424 19.955C16.4564 19.3657 16.1141 18.8067 15.7154 18.278C15.0394 17.3767 14.4458 16.5403 13.9344 15.769C13.4318 14.9977 13.0374 14.2393 12.7514 13.494C12.4741 12.7487 12.3354 11.9687 12.3354 11.154C12.3354 10.5127 12.4178 9.92333 12.5824 9.386C12.7471 8.84 12.9854 8.36767 13.2974 7.969C13.6181 7.56167 14.0038 7.24533 14.4544 7.02C14.9051 6.79467 15.4208 6.682 16.0014 6.682C16.7208 6.682 17.3274 6.80333 17.8214 7.046C18.3241 7.28867 18.7271 7.63533 19.0304 8.086C19.3424 8.53667 19.5678 9.074 19.7064 9.698C19.8538 10.3133 19.9274 10.998 19.9274 11.752L17.1714 12.012C17.1714 11.6913 17.1541 11.3707 17.1194 11.05C17.0934 10.7207 17.0414 10.4217 16.9634 10.153C16.8854 9.88433 16.7728 9.66767 16.6254 9.503C16.4781 9.33833 16.2874 9.256 16.0534 9.256C15.6894 9.256 15.4381 9.412 15.2994 9.724C15.1608 10.0273 15.0914 10.4607 15.0914 11.024C15.0914 11.752 15.2864 12.454 15.6764 13.13C16.0664 13.806 16.5908 14.5947 17.2494 15.496C18.0381 16.562 18.6794 17.5413 19.1734 18.434C19.6761 19.3267 19.9274 20.3147 19.9274 21.398C19.9274 22.0827 19.8538 22.7197 19.7064 23.309C19.5591 23.8897 19.3251 24.3967 19.0044 24.83C18.6924 25.2633 18.2894 25.6013 17.7954 25.844C17.3101 26.0867 16.7208 26.208 16.0274 26.208Z" fill="white"/>
</svg>
